<svg width="208" height="22" viewBox="0 0 208 22" fill="none" xmlns="http://www.w3.org/2000/svg">
<g id="bah-logo-01 1">
<path id="Vector" d="M1.70296 15.4218V10.1861H4.87048C5.69132 10.0865 6.52181 10.2704 7.22057 10.7063C7.54163 10.9822 7.79896 11.3226 7.97522 11.7047C8.15148 12.0868 8.24257 12.5017 8.24235 12.9214C8.25179 13.2856 8.17696 13.6472 8.02353 13.9786C7.8701 14.3101 7.64209 14.6028 7.3568 14.8345C6.69375 15.2692 5.90343 15.4757 5.10889 15.4218H1.70296ZM1.70296 8.89397V4.24561H4.83642C5.51505 4.18634 6.19738 4.30806 6.81186 4.59802C7.14772 4.7897 7.42182 5.07096 7.60259 5.4094C7.78335 5.74785 7.86344 6.12973 7.83363 6.51106C7.83915 6.86982 7.76237 7.22518 7.60904 7.55062C7.45571 7.87606 7.22977 8.16317 6.94809 8.39054C6.17492 8.82851 5.27967 9.01083 4.39365 8.91076L1.70296 8.89397ZM5.10889 16.7811C6.31606 16.9011 7.52637 16.585 8.51482 15.8917C8.95822 15.549 9.31179 15.1065 9.54587 14.6014C9.77995 14.0963 9.88772 13.5432 9.86016 12.9886C9.87554 12.1594 9.59367 11.3514 9.06414 10.7068C8.5346 10.0623 7.79134 9.62236 6.96512 9.46453C7.71222 9.34185 8.38733 8.9524 8.86162 8.37051C9.33592 7.78862 9.57619 7.05502 9.5366 6.30969C9.54173 5.77031 9.40864 5.23838 9.14966 4.76316C8.89067 4.28795 8.51417 3.88484 8.05502 3.59115C7.1698 3.06775 6.13522 2.84382 5.10889 2.95347H0V16.7811H5.10889Z" fill="black"/>
<path id="Vector_2" d="M13.2833 11.5622C13.2651 10.6802 13.4393 9.80456 13.7942 8.99466C14.0113 8.55309 14.3499 8.1805 14.7714 7.9194C15.193 7.6583 15.6805 7.51918 16.1784 7.51793C16.6316 7.52169 17.0769 7.63543 17.4749 7.84909C17.8729 8.06275 18.2114 8.36975 18.4604 8.74294C18.9411 9.60446 19.1709 10.5801 19.1245 11.5622C19.1629 12.4729 18.9881 13.3801 18.6136 14.2136C18.4608 14.5257 18.247 14.8051 17.9844 15.0357C17.7218 15.2662 17.4157 15.4435 17.0835 15.5573C16.7513 15.6711 16.3995 15.7192 16.0484 15.6988C15.6973 15.6785 15.3538 15.59 15.0374 15.4386C14.5591 15.2134 14.1613 14.8506 13.8964 14.3982C13.4547 13.5182 13.244 12.5431 13.2833 11.5622ZM11.5804 11.5622C11.5804 14.2639 12.9768 16.9657 16.0932 16.9657C19.2097 16.9657 20.9126 14.4485 20.9126 11.5957C20.9126 8.74294 19.397 6.27612 16.3487 6.27612C13.3004 6.27612 11.5293 8.72616 11.5293 11.5622H11.5804Z" fill="black"/>
<path id="Vector_3" d="M24.1652 11.5622C24.1301 10.6788 24.3051 9.79957 24.6761 8.99466C24.8915 8.55184 25.2297 8.17816 25.6516 7.91683C26.0735 7.6555 26.5619 7.5172 27.0602 7.51793C27.5114 7.51998 27.955 7.63312 28.3505 7.84706C28.7461 8.061 29.0811 8.36896 29.3252 8.74294C29.8136 9.60152 30.044 10.5794 29.9893 11.5622C30.045 12.4741 29.8694 13.3852 29.4784 14.2136C29.1728 14.8426 28.6265 15.3266 27.9593 15.5594C27.2921 15.7922 26.5585 15.7548 25.9192 15.4554C25.4386 15.2193 25.0368 14.8524 24.7612 14.3982C24.3347 13.5136 24.1303 12.5409 24.1652 11.5622ZM22.4622 11.5622C22.4622 14.2639 23.8587 16.9657 26.958 16.9657C30.0574 16.9657 31.7774 14.4485 31.7774 11.5957C31.7774 8.74294 30.2277 6.27612 27.2476 6.27612C24.2674 6.27612 22.4111 8.72616 22.4111 11.5622H22.4622Z" fill="black"/>
<path id="Vector_4" d="M40.3772 7.40046L34.6552 15.5393H40.3772V16.7811H32.7139V15.5393L38.2485 7.78642H33.1396V6.52784H40.3772V7.40046Z" fill="black"/>
<path id="Vector_5" d="M50.7481 21.312H49.3857V0H50.697L50.7481 21.312Z" fill="black"/>
<path id="Vector_6" d="M66.4156 11.4279H62.056L64.2188 4.79939L66.4156 11.4279ZM65.3427 3.03738H63.3843L58.8374 16.7811H60.319L61.5621 12.7536H66.7562L68.1186 16.7811H69.8215L65.3427 3.03738Z" fill="black"/>
<path id="Vector_7" d="M81.7424 10.6056C81.737 9.8049 82.0459 9.03308 82.6044 8.45143C83.1629 7.86979 83.9279 7.5233 84.7396 7.48436C85.4999 7.48435 86.2294 7.78084 86.7687 8.30907C87.3079 8.8373 87.6131 9.55434 87.6176 10.3036C87.6268 10.4041 87.6268 10.5052 87.6176 10.6056H81.7424ZM87.6346 13.7101C87.442 14.2925 87.0654 14.7988 86.5598 15.1551C86.0542 15.5114 85.4462 15.699 84.8247 15.6903C84.2656 15.6867 83.7174 15.5373 83.2358 15.2573C82.7543 14.9773 82.3565 14.5767 82.083 14.0961C81.7811 13.3509 81.6643 12.5454 81.7424 11.7468H89.3717C89.3717 8.91076 88.0604 6.24256 84.8247 6.24256C83.5087 6.28205 82.2623 6.83421 81.3589 7.77796C80.4554 8.7217 79.9687 9.98 80.0054 11.2769C80.0016 11.4342 80.013 11.5916 80.0394 11.7468C80.0394 14.6163 81.6572 17.0664 84.8077 17.0664C85.7716 17.0935 86.7192 16.8168 87.5125 16.2765C88.3058 15.7363 88.9034 14.9607 89.2184 14.0625L87.6346 13.7101Z" fill="black"/>
<path id="Vector_8" d="M93.1353 8.27307C93.4281 7.67301 93.8874 7.16695 94.46 6.81353C95.0327 6.46011 95.6952 6.27378 96.3709 6.27613C96.9685 6.26364 97.558 6.41365 98.0747 6.70969C98.5914 7.00572 99.0154 7.43633 99.3 7.95423C99.7393 8.97563 99.9148 10.0884 99.8109 11.193V16.7811H98.2612V10.4546C98.3235 9.80715 98.218 9.1547 97.9547 8.55835C97.7685 8.27826 97.5164 8.04657 97.22 7.88297C96.9235 7.71937 96.5913 7.62868 96.2517 7.61861C95.8382 7.62466 95.4312 7.72114 95.0601 7.90107C94.689 8.08099 94.3631 8.33988 94.106 8.65904C93.5085 9.45068 93.2185 10.427 93.2885 11.4111V16.7811H91.6196V6.52784H93.1353V8.27307Z" fill="black"/>
<path id="Vector_9" d="M188.91 8.27307C189.2 7.67433 189.656 7.16889 190.226 6.81542C190.796 6.46195 191.455 6.27495 192.129 6.27613C192.731 6.2612 193.326 6.40984 193.849 6.70581C194.371 7.00178 194.801 7.43367 195.092 7.95423C195.518 8.97891 195.688 10.09 195.586 11.193V16.7811H193.883V10.4546C193.948 9.81013 193.854 9.15966 193.61 8.55835C193.413 8.26972 193.146 8.03315 192.835 7.86934C192.523 7.70552 192.175 7.61943 191.822 7.61861C191.408 7.62467 191.001 7.72114 190.63 7.90107C190.259 8.08099 189.933 8.33988 189.676 8.65904C189.139 9.47286 188.91 10.4473 189.029 11.4111V16.7811H187.326V6.52784H188.859L188.91 8.27307Z" fill="black"/>
<path id="Vector_10" d="M110.335 21.312H108.99V0H110.284L110.335 21.312Z" fill="black"/>
<path id="Vector_11" d="M128.454 16.7811V10.0686H121.949V16.7811H120.246V2.95347H121.949V8.81007H128.454V2.95347H130.157V16.7811H128.454Z" fill="black"/>
<path id="Vector_12" d="M139.439 12.2838C139.467 13.1573 139.148 14.0072 138.55 14.6528C137.953 15.2984 137.123 15.6887 136.237 15.7407C134.909 15.7407 133.989 15.2204 133.989 13.9451C133.989 11.8307 136.254 11.6125 138.162 11.6125H139.456L139.439 12.2838ZM138.128 10.4211C136.799 10.3517 135.471 10.5575 134.228 11.0252C133.507 11.3113 132.919 11.8497 132.577 12.537C132.235 13.2242 132.162 14.0119 132.374 14.7486C132.585 15.4853 133.065 16.1192 133.721 16.5284C134.378 16.9376 135.165 17.0933 135.931 16.9657C136.672 17.0151 137.412 16.8387 138.048 16.4606C138.685 16.0824 139.188 15.5206 139.49 14.8513L139.643 16.7811H141.193C141.018 16.0788 140.943 15.3558 140.972 14.6331V10.6392C141.128 9.45709 140.83 8.26016 140.137 7.28299C139.717 6.9005 139.218 6.61238 138.674 6.43854C138.13 6.2647 137.554 6.20929 136.987 6.27613C135.147 6.27613 132.916 6.94737 132.61 9.07857L134.092 9.3135C134.381 7.90389 135.59 7.50114 136.867 7.50114C138.69 7.50114 139.456 8.18917 139.456 9.98474V10.4211H138.128Z" fill="black"/>
<path id="Vector_13" d="M145.177 6.52784V8.39054C145.447 7.78762 145.885 7.27225 146.439 6.90401C146.994 6.53578 147.643 6.32973 148.311 6.30969C148.987 6.3018 149.647 6.51972 150.182 6.92799C150.717 7.33627 151.096 7.91088 151.257 8.55835C151.521 7.88113 151.989 7.29959 152.597 6.89168C153.206 6.48377 153.927 6.26898 154.663 6.27613C155.189 6.28268 155.705 6.42183 156.161 6.68032C156.617 6.93882 156.998 7.30805 157.269 7.75286C157.687 8.66755 157.857 9.67374 157.762 10.6728V16.7811H156.162V10.6728C156.228 9.97745 156.129 9.2765 155.872 8.62548C155.713 8.3119 155.47 8.04657 155.171 7.85752C154.871 7.66848 154.525 7.56274 154.169 7.55149C153.766 7.57776 153.375 7.69605 153.026 7.897C152.677 8.09796 152.381 8.37608 152.16 8.70938C151.667 9.46581 151.456 10.3675 151.564 11.2601V16.7811H149.861V10.27C149.885 9.69188 149.768 9.11648 149.52 8.59192C149.344 8.29838 149.096 8.05357 148.798 7.8804C148.5 7.70724 148.163 7.61139 147.817 7.60183C147.447 7.62756 147.088 7.73068 146.762 7.9043C146.436 8.07793 146.151 8.31807 145.927 8.6087C145.451 9.29187 145.229 10.1155 145.297 10.9413V16.7811H143.73V6.52784H145.177Z" fill="black"/>
<path id="Vector_14" d="M162.242 16.7811H160.675V6.52784H162.242V16.7811ZM162.242 4.74905H160.539V2.95347H162.242V4.74905Z" fill="black"/>
<path id="Vector_15" d="M165.528 16.7811V2.95347H167.078V16.7811H165.528Z" fill="black"/>
<path id="Vector_16" d="M71.5244 16.7811V2.95347H73.0741V16.7811H71.5244Z" fill="black"/>
<path id="Vector_17" d="M76.2588 16.7811V2.95347H77.8085V16.7811H76.2588Z" fill="black"/>
<path id="Vector_18" d="M175.15 16.7811L173.617 16.8986C171.352 16.8986 170.654 15.5896 170.654 13.5423V7.70252H168.815V6.44394H170.654V3.89321L172.255 3.7254V6.44394H174.571V7.68574H172.255V13.878C172.255 15.0694 172.613 15.6903 173.958 15.6903H175.184L175.15 16.7811Z" fill="black"/>
<path id="Vector_19" d="M177.687 11.5622C177.661 10.6795 177.835 9.8021 178.198 8.99466C178.414 8.55184 178.752 8.17816 179.174 7.91683C179.596 7.6555 180.084 7.5172 180.582 7.51793C181.033 7.51998 181.477 7.63312 181.873 7.84706C182.268 8.061 182.603 8.36896 182.847 8.74294C183.336 9.60152 183.566 10.5794 183.511 11.5622C183.558 12.4735 183.383 13.3826 183 14.2136C182.797 14.6494 182.475 15.0212 182.07 15.2879C181.666 15.5547 181.194 15.706 180.708 15.7251C180.221 15.7442 179.739 15.6303 179.314 15.3962C178.889 15.162 178.538 14.8166 178.3 14.3982C177.861 13.5175 177.65 12.543 177.687 11.5622ZM175.984 11.5622C175.984 14.2639 177.364 16.9657 180.48 16.9657C181.165 16.9553 181.841 16.8046 182.464 16.523C183.087 16.2414 183.643 15.8351 184.098 15.33C184.553 14.825 184.896 14.2321 185.106 13.5892C185.316 12.9463 185.387 12.2674 185.316 11.5957C185.316 8.89397 183.784 6.27612 180.736 6.27612C177.687 6.27612 175.95 8.72616 175.95 11.5622H175.984Z" fill="black"/>
<path id="Vector_20" d="M201.188 4.59802C201.191 4.8809 201.133 5.16118 201.018 5.42029C200.802 5.91432 200.398 6.30569 199.894 6.51106C199.627 6.63173 199.336 6.69419 199.042 6.69419C198.748 6.69419 198.458 6.63173 198.191 6.51106C197.807 6.35462 197.479 6.0892 197.248 5.74856C197.018 5.40791 196.895 5.00742 196.897 4.59802C196.894 4.32058 196.952 4.04584 197.067 3.79252C197.278 3.29113 197.682 2.89275 198.191 2.68497C198.458 2.56431 198.748 2.50184 199.042 2.50184C199.336 2.50184 199.627 2.56431 199.894 2.68497C200.4 2.8973 200.802 3.29418 201.018 3.79252C201.133 4.04584 201.191 4.32058 201.188 4.59802ZM200.864 4.59802C200.862 4.3624 200.816 4.12921 200.728 3.90999C200.541 3.48455 200.191 3.14906 199.754 2.97628C199.317 2.80349 198.829 2.80736 198.395 2.98703C198.181 3.07407 197.985 3.19921 197.816 3.35622C197.661 3.51886 197.534 3.70605 197.442 3.90999C197.349 4.12786 197.301 4.36176 197.301 4.59802C197.301 4.83428 197.349 5.06817 197.442 5.28604C197.523 5.50574 197.65 5.70627 197.814 5.87477C197.979 6.04327 198.177 6.17601 198.397 6.2645C198.617 6.35298 198.853 6.39524 199.09 6.38857C199.327 6.38191 199.56 6.32646 199.775 6.22578C199.988 6.13859 200.18 6.00692 200.337 5.83982C200.501 5.68077 200.634 5.49298 200.728 5.28604C200.845 5.07246 200.92 4.83904 200.95 4.59802H200.864ZM199.621 5.80625L198.872 4.81617H198.617V5.80625H198.191V3.35622H199.076C199.321 3.34608 199.563 3.40426 199.775 3.52403C199.845 3.59055 199.9 3.67167 199.936 3.7616C199.971 3.85154 199.986 3.94805 199.979 4.04424C199.984 4.13241 199.972 4.22078 199.943 4.30429C199.914 4.3878 199.868 4.46481 199.809 4.53089C199.68 4.65556 199.512 4.73262 199.332 4.74905L200.149 5.75591L199.621 5.80625ZM199.621 4.12815C199.639 4.06782 199.639 4.00387 199.621 3.94355C199.614 3.91785 199.601 3.89404 199.583 3.87376C199.566 3.85348 199.544 3.83722 199.519 3.82609H199.366H198.719V4.53089H199.11C199.485 4.53089 199.672 4.37986 199.672 4.09458L199.621 4.12815Z" fill="black"/>
</g>
</svg>
