<svg width="84" height="84" viewBox="0 0 84 84" fill="none" xmlns="http://www.w3.org/2000/svg">
<g id="group">
<mask id="mask0_4806_518" style="mask-type:alpha" maskUnits="userSpaceOnUse" x="0" y="0" width="84" height="84">
<rect id="Bounding box" width="84" height="84" fill="#D9D9D9"/>
</mask>
<g mask="url(#mask0_4806_518)">
<path id="group_2" d="M6.15186 60.9324C6.15186 59.0937 6.6264 57.4665 7.57548 56.0507C8.52456 54.635 9.85311 53.5514 11.5611 52.8001C15.3499 51.137 18.8102 49.8971 21.9421 49.0805C25.074 48.2638 28.5661 47.8555 32.4185 47.8555C36.2708 47.8555 39.7484 48.2638 42.8511 49.0805C45.9539 49.8971 49.4107 51.137 53.2216 52.8001C54.9074 53.5514 56.2339 54.635 57.2011 56.0507C58.1683 57.4665 58.6519 59.0937 58.6519 60.9324V63.5381C58.6519 64.5782 58.2599 65.5112 57.4759 66.3372C56.6919 67.1638 55.7375 67.5771 54.6129 67.5771H10.19C9.08281 67.5771 8.13315 67.1807 7.34098 66.388C6.54823 65.5952 6.15186 64.6453 6.15186 63.5381V60.9324ZM73.8095 67.5771H63.5519C63.7309 66.9039 63.9126 66.2445 64.097 65.5987C64.2807 64.9536 64.3726 64.2667 64.3726 63.5381V61.0347C64.3726 57.9203 63.7126 55.3639 62.3925 53.3654C61.0724 51.3669 59.1121 49.6874 56.5116 48.3271C59.6167 48.771 62.5669 49.3453 65.3622 50.05C68.1576 50.7547 70.4958 51.5897 72.3771 52.5551C74.032 53.4832 75.3574 54.6758 76.3531 56.133C77.3494 57.5907 77.8476 59.2247 77.8476 61.0347V63.5381C77.8476 64.6453 77.4512 65.5952 76.6585 66.388C75.8663 67.1807 74.9166 67.5771 73.8095 67.5771ZM32.4185 40.8695C29.0386 40.8695 26.2559 39.7766 24.0701 37.5909C21.8844 35.4045 20.7915 32.6214 20.7915 29.2416C20.7915 25.8618 21.8844 23.0845 24.0701 20.9099C26.2559 18.7352 29.0386 17.6479 32.4185 17.6479C35.7983 17.6479 38.5756 18.7352 40.7502 20.9099C42.9249 23.0845 44.0122 25.8618 44.0122 29.2416C44.0122 32.6214 42.9249 35.4045 40.7502 37.5909C38.5756 39.7766 35.7983 40.8695 32.4185 40.8695ZM60.065 29.2416C60.065 32.6214 58.9776 35.4045 56.803 37.5909C54.6283 39.7766 51.847 40.8695 48.459 40.8695C48.0611 40.8695 47.6368 40.8424 47.1859 40.7881C46.7349 40.7344 46.312 40.6359 45.9171 40.4924C47.1672 39.1291 48.1157 37.4923 48.7626 35.5819C49.4095 33.6714 49.733 31.5624 49.733 29.2547C49.733 26.9465 49.3967 24.887 48.7241 23.0764C48.0509 21.2657 47.1153 19.5708 45.9171 17.9917C46.2893 17.9066 46.7122 17.8278 47.1859 17.7555C47.6589 17.6837 48.0819 17.6479 48.4546 17.6479C51.8455 17.6479 54.6283 18.7352 56.803 20.9099C58.9776 23.0845 60.065 25.8618 60.065 29.2416ZM10.1226 63.6055H54.6802V60.9332C54.6802 59.9999 54.4145 59.124 53.8831 58.3056C53.3511 57.4866 52.5872 56.8347 51.5915 56.35C47.9299 54.6402 44.7035 53.459 41.9122 52.8062C39.1216 52.1535 35.957 51.8271 32.4185 51.8271C28.8806 51.8271 25.7069 52.1535 22.8976 52.8062C20.0889 53.459 16.8537 54.6402 13.1921 56.35C12.1958 56.8347 11.4351 57.4866 10.9101 58.3056C10.3851 59.124 10.1226 59.9999 10.1226 60.9332V63.6055ZM32.4019 36.8979C34.587 36.8979 36.4064 36.171 37.8601 34.7174C39.3144 33.2637 40.0415 31.4443 40.0415 29.2591C40.0415 27.0734 39.3144 25.2536 37.8601 23.8C36.4064 22.3463 34.587 21.6195 32.4019 21.6195C30.2167 21.6195 28.397 22.3463 26.9427 23.8C25.4891 25.2536 24.7622 27.0734 24.7622 29.2591C24.7622 31.4443 25.4891 33.2637 26.9427 34.7174C28.397 36.171 30.2167 36.8979 32.4019 36.8979Z" fill="#ADB5BD"/>
</g>
</g>
</svg>
